<mxfile host="app.diagrams.net" modified="2020-10-20T09:07:07.971Z" agent="5.0 (Windows NT 10.0; Win64; x64) AppleWebKit/537.36 (KHTML, like Gecko) Chrome/86.0.4240.75 Safari/537.36" etag="NYEw6ovxptFz04Kz-yRW" version="13.8.0" type="github">
  <diagram id="bMVnpUsRe7kVm7hbhH8q" name="Page-1">
    <mxGraphModel dx="751" dy="677" grid="1" gridSize="10" guides="1" tooltips="1" connect="1" arrows="1" fold="1" page="1" pageScale="1" pageWidth="827" pageHeight="1169" math="0" shadow="0">
      <root>
        <mxCell id="0" />
        <mxCell id="1" parent="0" />
        <mxCell id="C990iu7r9GBEBKF5YpmI-1" value="&lt;b&gt;&lt;u&gt;Customer ID&lt;/u&gt;&lt;/b&gt;" style="rounded=0;whiteSpace=wrap;html=1;" vertex="1" parent="1">
          <mxGeometry x="30" y="40" width="100" height="40" as="geometry" />
        </mxCell>
        <mxCell id="C990iu7r9GBEBKF5YpmI-2" value="Cust Name" style="rounded=0;whiteSpace=wrap;html=1;" vertex="1" parent="1">
          <mxGeometry x="130" y="40" width="120" height="40" as="geometry" />
        </mxCell>
        <mxCell id="C990iu7r9GBEBKF5YpmI-3" value="Cust Address" style="rounded=0;whiteSpace=wrap;html=1;" vertex="1" parent="1">
          <mxGeometry x="250" y="40" width="120" height="40" as="geometry" />
        </mxCell>
        <mxCell id="C990iu7r9GBEBKF5YpmI-4" value="&lt;b&gt;&lt;u&gt;Account ID&lt;/u&gt;&lt;/b&gt;" style="rounded=0;whiteSpace=wrap;html=1;" vertex="1" parent="1">
          <mxGeometry x="40" y="150" width="110" height="40" as="geometry" />
        </mxCell>
        <mxCell id="C990iu7r9GBEBKF5YpmI-5" value="Exp Date" style="rounded=0;whiteSpace=wrap;html=1;" vertex="1" parent="1">
          <mxGeometry x="150" y="150" width="120" height="40" as="geometry" />
        </mxCell>
        <mxCell id="C990iu7r9GBEBKF5YpmI-8" value="Card Type" style="rounded=0;whiteSpace=wrap;html=1;" vertex="1" parent="1">
          <mxGeometry x="270" y="150" width="120" height="40" as="geometry" />
        </mxCell>
        <mxCell id="C990iu7r9GBEBKF5YpmI-9" value="&lt;i&gt;CustomerID&lt;/i&gt;" style="rounded=0;whiteSpace=wrap;html=1;" vertex="1" parent="1">
          <mxGeometry x="390" y="150" width="120" height="40" as="geometry" />
        </mxCell>
        <mxCell id="C990iu7r9GBEBKF5YpmI-10" value="" style="endArrow=classic;html=1;" edge="1" parent="1">
          <mxGeometry width="50" height="50" relative="1" as="geometry">
            <mxPoint x="414" y="150" as="sourcePoint" />
            <mxPoint x="90" y="80" as="targetPoint" />
          </mxGeometry>
        </mxCell>
        <mxCell id="C990iu7r9GBEBKF5YpmI-11" value="CARD ACCOUNT" style="text;html=1;strokeColor=none;fillColor=none;align=center;verticalAlign=middle;whiteSpace=wrap;rounded=0;" vertex="1" parent="1">
          <mxGeometry x="40" y="120" width="120" height="20" as="geometry" />
        </mxCell>
        <mxCell id="C990iu7r9GBEBKF5YpmI-12" value="CUSTOMER" style="text;html=1;strokeColor=none;fillColor=none;align=center;verticalAlign=middle;whiteSpace=wrap;rounded=0;" vertex="1" parent="1">
          <mxGeometry x="50" y="10" width="40" height="20" as="geometry" />
        </mxCell>
        <mxCell id="C990iu7r9GBEBKF5YpmI-13" value="&lt;b&gt;&lt;u&gt;DAccountID&lt;/u&gt;&lt;/b&gt;" style="rounded=0;whiteSpace=wrap;html=1;" vertex="1" parent="1">
          <mxGeometry x="40" y="240" width="120" height="40" as="geometry" />
        </mxCell>
        <mxCell id="C990iu7r9GBEBKF5YpmI-14" value="Bank No" style="rounded=0;whiteSpace=wrap;html=1;" vertex="1" parent="1">
          <mxGeometry x="160" y="240" width="120" height="40" as="geometry" />
        </mxCell>
        <mxCell id="C990iu7r9GBEBKF5YpmI-15" value="Debit Card" style="text;html=1;align=center;verticalAlign=middle;resizable=0;points=[];autosize=1;" vertex="1" parent="1">
          <mxGeometry x="25" y="210" width="70" height="20" as="geometry" />
        </mxCell>
        <mxCell id="C990iu7r9GBEBKF5YpmI-16" value="" style="endArrow=classic;html=1;entryX=0.75;entryY=1;entryDx=0;entryDy=0;" edge="1" parent="1" target="C990iu7r9GBEBKF5YpmI-4">
          <mxGeometry width="50" height="50" relative="1" as="geometry">
            <mxPoint x="100" y="240" as="sourcePoint" />
            <mxPoint x="150" y="190" as="targetPoint" />
          </mxGeometry>
        </mxCell>
        <mxCell id="C990iu7r9GBEBKF5YpmI-17" value="&lt;b&gt;&lt;u&gt;CAccountID&lt;/u&gt;&lt;/b&gt;" style="rounded=0;whiteSpace=wrap;html=1;" vertex="1" parent="1">
          <mxGeometry x="414" y="240" width="120" height="40" as="geometry" />
        </mxCell>
        <mxCell id="C990iu7r9GBEBKF5YpmI-18" value="Cur Bal" style="rounded=0;whiteSpace=wrap;html=1;" vertex="1" parent="1">
          <mxGeometry x="534" y="240" width="120" height="40" as="geometry" />
        </mxCell>
        <mxCell id="C990iu7r9GBEBKF5YpmI-19" value="CHARGES" style="text;html=1;strokeColor=none;fillColor=none;align=center;verticalAlign=middle;whiteSpace=wrap;rounded=0;" vertex="1" parent="1">
          <mxGeometry x="70" y="310" width="100" height="20" as="geometry" />
        </mxCell>
        <mxCell id="C990iu7r9GBEBKF5YpmI-20" value="" style="endArrow=classic;html=1;entryX=0.75;entryY=1;entryDx=0;entryDy=0;exitX=0.5;exitY=0;exitDx=0;exitDy=0;" edge="1" parent="1" source="C990iu7r9GBEBKF5YpmI-17" target="C990iu7r9GBEBKF5YpmI-4">
          <mxGeometry width="50" height="50" relative="1" as="geometry">
            <mxPoint x="460" y="260" as="sourcePoint" />
            <mxPoint x="510" y="210" as="targetPoint" />
          </mxGeometry>
        </mxCell>
        <mxCell id="C990iu7r9GBEBKF5YpmI-22" value="&lt;b&gt;&lt;u&gt;CAccountID&lt;/u&gt;&lt;/b&gt;" style="rounded=0;whiteSpace=wrap;html=1;" vertex="1" parent="1">
          <mxGeometry x="110" y="340" width="120" height="40" as="geometry" />
        </mxCell>
        <mxCell id="C990iu7r9GBEBKF5YpmI-23" value="&lt;b&gt;&lt;u&gt;MerchID&lt;/u&gt;&lt;/b&gt;" style="rounded=0;whiteSpace=wrap;html=1;" vertex="1" parent="1">
          <mxGeometry x="230" y="340" width="120" height="40" as="geometry" />
        </mxCell>
        <mxCell id="C990iu7r9GBEBKF5YpmI-24" value="Charge Date" style="rounded=0;whiteSpace=wrap;html=1;" vertex="1" parent="1">
          <mxGeometry x="350" y="340" width="120" height="40" as="geometry" />
        </mxCell>
        <mxCell id="C990iu7r9GBEBKF5YpmI-25" value="Charge Time" style="rounded=0;whiteSpace=wrap;html=1;" vertex="1" parent="1">
          <mxGeometry x="470" y="340" width="120" height="40" as="geometry" />
        </mxCell>
        <mxCell id="C990iu7r9GBEBKF5YpmI-26" value="Amount" style="rounded=0;whiteSpace=wrap;html=1;" vertex="1" parent="1">
          <mxGeometry x="590" y="340" width="120" height="40" as="geometry" />
        </mxCell>
        <mxCell id="C990iu7r9GBEBKF5YpmI-27" value="" style="endArrow=classic;html=1;entryX=0.5;entryY=1;entryDx=0;entryDy=0;" edge="1" parent="1" target="C990iu7r9GBEBKF5YpmI-17">
          <mxGeometry width="50" height="50" relative="1" as="geometry">
            <mxPoint x="178" y="341" as="sourcePoint" />
            <mxPoint x="510" y="210" as="targetPoint" />
          </mxGeometry>
        </mxCell>
        <mxCell id="C990iu7r9GBEBKF5YpmI-28" value="Text" style="text;html=1;strokeColor=none;fillColor=none;align=center;verticalAlign=middle;whiteSpace=wrap;rounded=0;" vertex="1" parent="1">
          <mxGeometry x="460" y="220" width="40" height="20" as="geometry" />
        </mxCell>
        <mxCell id="C990iu7r9GBEBKF5YpmI-29" value="&lt;b&gt;&lt;u&gt;Merch ID&lt;/u&gt;&lt;/b&gt;" style="rounded=0;whiteSpace=wrap;html=1;" vertex="1" parent="1">
          <mxGeometry x="110" y="430" width="120" height="40" as="geometry" />
        </mxCell>
        <mxCell id="C990iu7r9GBEBKF5YpmI-31" value="Merch Addr" style="rounded=0;whiteSpace=wrap;html=1;" vertex="1" parent="1">
          <mxGeometry x="230" y="430" width="120" height="40" as="geometry" />
        </mxCell>
        <mxCell id="C990iu7r9GBEBKF5YpmI-32" value="" style="endArrow=classic;html=1;exitX=0.408;exitY=0.025;exitDx=0;exitDy=0;exitPerimeter=0;entryX=0.45;entryY=1.025;entryDx=0;entryDy=0;entryPerimeter=0;" edge="1" parent="1" source="C990iu7r9GBEBKF5YpmI-29" target="C990iu7r9GBEBKF5YpmI-23">
          <mxGeometry width="50" height="50" relative="1" as="geometry">
            <mxPoint x="460" y="260" as="sourcePoint" />
            <mxPoint x="510" y="210" as="targetPoint" />
            <Array as="points" />
          </mxGeometry>
        </mxCell>
        <mxCell id="C990iu7r9GBEBKF5YpmI-33" value="MERCHANT" style="text;html=1;strokeColor=none;fillColor=none;align=center;verticalAlign=middle;whiteSpace=wrap;rounded=0;" vertex="1" parent="1">
          <mxGeometry x="90" y="400" width="40" height="20" as="geometry" />
        </mxCell>
        <mxCell id="C990iu7r9GBEBKF5YpmI-34" value="&lt;u&gt;&lt;b&gt;Part No&lt;/b&gt;&lt;/u&gt;" style="rounded=0;whiteSpace=wrap;html=1;" vertex="1" parent="1">
          <mxGeometry x="110" y="560" width="120" height="40" as="geometry" />
        </mxCell>
        <mxCell id="C990iu7r9GBEBKF5YpmI-35" value="Description" style="rounded=0;whiteSpace=wrap;html=1;" vertex="1" parent="1">
          <mxGeometry x="230" y="560" width="120" height="40" as="geometry" />
        </mxCell>
        <mxCell id="C990iu7r9GBEBKF5YpmI-36" value="&lt;b&gt;&lt;u&gt;Vendor Name&lt;/u&gt;&lt;/b&gt;" style="rounded=0;whiteSpace=wrap;html=1;" vertex="1" parent="1">
          <mxGeometry x="350" y="560" width="120" height="40" as="geometry" />
        </mxCell>
        <mxCell id="C990iu7r9GBEBKF5YpmI-37" value="Address" style="rounded=0;whiteSpace=wrap;html=1;" vertex="1" parent="1">
          <mxGeometry x="470" y="560" width="120" height="40" as="geometry" />
        </mxCell>
        <mxCell id="C990iu7r9GBEBKF5YpmI-38" value="Unit cost" style="rounded=0;whiteSpace=wrap;html=1;" vertex="1" parent="1">
          <mxGeometry x="590" y="560" width="120" height="40" as="geometry" />
        </mxCell>
        <mxCell id="C990iu7r9GBEBKF5YpmI-39" value="" style="endArrow=classic;html=1;exitX=0.25;exitY=1;exitDx=0;exitDy=0;entryX=0.5;entryY=1;entryDx=0;entryDy=0;" edge="1" parent="1" source="C990iu7r9GBEBKF5YpmI-34" target="C990iu7r9GBEBKF5YpmI-35">
          <mxGeometry width="50" height="50" relative="1" as="geometry">
            <mxPoint x="360" y="700" as="sourcePoint" />
            <mxPoint x="310" y="680" as="targetPoint" />
            <Array as="points">
              <mxPoint x="140" y="680" />
              <mxPoint x="290" y="680" />
            </Array>
          </mxGeometry>
        </mxCell>
        <mxCell id="C990iu7r9GBEBKF5YpmI-44" value="" style="endArrow=classic;html=1;" edge="1" parent="1">
          <mxGeometry width="50" height="50" relative="1" as="geometry">
            <mxPoint x="170" y="570" as="sourcePoint" />
            <mxPoint x="633" y="560" as="targetPoint" />
            <Array as="points">
              <mxPoint x="170" y="510" />
              <mxPoint x="633" y="510" />
            </Array>
          </mxGeometry>
        </mxCell>
        <mxCell id="C990iu7r9GBEBKF5YpmI-45" value="" style="endArrow=classic;html=1;" edge="1" parent="1">
          <mxGeometry width="50" height="50" relative="1" as="geometry">
            <mxPoint x="400" y="560" as="sourcePoint" />
            <mxPoint x="515" y="558" as="targetPoint" />
            <Array as="points">
              <mxPoint x="400" y="520" />
              <mxPoint x="515" y="520" />
            </Array>
          </mxGeometry>
        </mxCell>
        <mxCell id="C990iu7r9GBEBKF5YpmI-46" value="" style="endArrow=classic;html=1;exitX=0.658;exitY=1.05;exitDx=0;exitDy=0;exitPerimeter=0;" edge="1" parent="1" source="C990iu7r9GBEBKF5YpmI-36" target="C990iu7r9GBEBKF5YpmI-38">
          <mxGeometry width="50" height="50" relative="1" as="geometry">
            <mxPoint x="430" y="640" as="sourcePoint" />
            <mxPoint x="580" y="640" as="targetPoint" />
            <Array as="points">
              <mxPoint x="430" y="720" />
              <mxPoint x="651" y="720" />
            </Array>
          </mxGeometry>
        </mxCell>
        <mxCell id="C990iu7r9GBEBKF5YpmI-47" value="&lt;u&gt;&lt;b&gt;Part No&lt;/b&gt;&lt;/u&gt;" style="rounded=0;whiteSpace=wrap;html=1;" vertex="1" parent="1">
          <mxGeometry x="140" y="770" width="120" height="50" as="geometry" />
        </mxCell>
        <mxCell id="C990iu7r9GBEBKF5YpmI-48" value="Description" style="rounded=0;whiteSpace=wrap;html=1;" vertex="1" parent="1">
          <mxGeometry x="260" y="770" width="120" height="50" as="geometry" />
        </mxCell>
        <mxCell id="C990iu7r9GBEBKF5YpmI-49" value="&lt;b&gt;&lt;u&gt;Vendor Name&lt;/u&gt;&lt;/b&gt;" style="rounded=0;whiteSpace=wrap;html=1;" vertex="1" parent="1">
          <mxGeometry x="150" y="860" width="120" height="50" as="geometry" />
        </mxCell>
        <mxCell id="C990iu7r9GBEBKF5YpmI-50" value="Address" style="rounded=0;whiteSpace=wrap;html=1;" vertex="1" parent="1">
          <mxGeometry x="270" y="860" width="120" height="50" as="geometry" />
        </mxCell>
        <mxCell id="C990iu7r9GBEBKF5YpmI-51" value="&lt;u&gt;&lt;b&gt;Part No&lt;/b&gt;&lt;/u&gt;" style="rounded=0;whiteSpace=wrap;html=1;" vertex="1" parent="1">
          <mxGeometry x="150" y="960" width="120" height="50" as="geometry" />
        </mxCell>
        <mxCell id="C990iu7r9GBEBKF5YpmI-52" value="&lt;b&gt;&lt;u&gt;Vendor Name&lt;/u&gt;&lt;/b&gt;" style="rounded=0;whiteSpace=wrap;html=1;" vertex="1" parent="1">
          <mxGeometry x="270" y="960" width="120" height="50" as="geometry" />
        </mxCell>
        <mxCell id="C990iu7r9GBEBKF5YpmI-53" value="Unit cost" style="rounded=0;whiteSpace=wrap;html=1;" vertex="1" parent="1">
          <mxGeometry x="390" y="960" width="120" height="50" as="geometry" />
        </mxCell>
        <mxCell id="C990iu7r9GBEBKF5YpmI-54" value="" style="endArrow=classic;html=1;entryX=0.5;entryY=1;entryDx=0;entryDy=0;exitX=0.5;exitY=0;exitDx=0;exitDy=0;" edge="1" parent="1" source="C990iu7r9GBEBKF5YpmI-51" target="C990iu7r9GBEBKF5YpmI-47">
          <mxGeometry width="50" height="50" relative="1" as="geometry">
            <mxPoint x="360" y="1000" as="sourcePoint" />
            <mxPoint x="410" y="950" as="targetPoint" />
          </mxGeometry>
        </mxCell>
        <mxCell id="C990iu7r9GBEBKF5YpmI-55" value="" style="endArrow=classic;html=1;entryX=0.75;entryY=1;entryDx=0;entryDy=0;" edge="1" parent="1" source="C990iu7r9GBEBKF5YpmI-52" target="C990iu7r9GBEBKF5YpmI-49">
          <mxGeometry width="50" height="50" relative="1" as="geometry">
            <mxPoint x="307" y="958" as="sourcePoint" />
            <mxPoint x="410" y="950" as="targetPoint" />
          </mxGeometry>
        </mxCell>
        <mxCell id="C990iu7r9GBEBKF5YpmI-56" value="VENDORS" style="shape=table;html=1;whiteSpace=wrap;startSize=30;container=1;collapsible=0;childLayout=tableLayout;fixedRows=1;rowLines=0;fontStyle=1;align=center;" vertex="1" parent="1">
          <mxGeometry x="510" y="750" width="180" height="110" as="geometry" />
        </mxCell>
        <mxCell id="C990iu7r9GBEBKF5YpmI-57" value="" style="shape=partialRectangle;html=1;whiteSpace=wrap;collapsible=0;dropTarget=0;pointerEvents=0;fillColor=none;top=0;left=0;bottom=1;right=0;points=[[0,0.5],[1,0.5]];portConstraint=eastwest;" vertex="1" parent="C990iu7r9GBEBKF5YpmI-56">
          <mxGeometry y="30" width="180" height="30" as="geometry" />
        </mxCell>
        <mxCell id="C990iu7r9GBEBKF5YpmI-58" value="&lt;u&gt;&lt;b&gt;PK&lt;/b&gt;&lt;/u&gt;" style="shape=partialRectangle;html=1;whiteSpace=wrap;connectable=0;fillColor=none;top=0;left=0;bottom=0;right=0;overflow=hidden;" vertex="1" parent="C990iu7r9GBEBKF5YpmI-57">
          <mxGeometry width="40" height="30" as="geometry" />
        </mxCell>
        <mxCell id="C990iu7r9GBEBKF5YpmI-59" value="&lt;b&gt;&lt;u&gt;Vendor Name&lt;/u&gt;&lt;/b&gt;" style="shape=partialRectangle;html=1;whiteSpace=wrap;connectable=0;fillColor=none;top=0;left=0;bottom=0;right=0;align=left;spacingLeft=6;overflow=hidden;" vertex="1" parent="C990iu7r9GBEBKF5YpmI-57">
          <mxGeometry x="40" width="140" height="30" as="geometry" />
        </mxCell>
        <mxCell id="C990iu7r9GBEBKF5YpmI-60" value="" style="shape=partialRectangle;html=1;whiteSpace=wrap;collapsible=0;dropTarget=0;pointerEvents=0;fillColor=none;top=0;left=0;bottom=0;right=0;points=[[0,0.5],[1,0.5]];portConstraint=eastwest;" vertex="1" parent="C990iu7r9GBEBKF5YpmI-56">
          <mxGeometry y="60" width="180" height="30" as="geometry" />
        </mxCell>
        <mxCell id="C990iu7r9GBEBKF5YpmI-61" value="" style="shape=partialRectangle;html=1;whiteSpace=wrap;connectable=0;fillColor=none;top=0;left=0;bottom=0;right=0;overflow=hidden;" vertex="1" parent="C990iu7r9GBEBKF5YpmI-60">
          <mxGeometry width="40" height="30" as="geometry" />
        </mxCell>
        <mxCell id="C990iu7r9GBEBKF5YpmI-62" value="Address" style="shape=partialRectangle;html=1;whiteSpace=wrap;connectable=0;fillColor=none;top=0;left=0;bottom=0;right=0;align=left;spacingLeft=6;overflow=hidden;" vertex="1" parent="C990iu7r9GBEBKF5YpmI-60">
          <mxGeometry x="40" width="140" height="30" as="geometry" />
        </mxCell>
        <mxCell id="C990iu7r9GBEBKF5YpmI-63" value="" style="shape=partialRectangle;html=1;whiteSpace=wrap;collapsible=0;dropTarget=0;pointerEvents=0;fillColor=none;top=0;left=0;bottom=0;right=0;points=[[0,0.5],[1,0.5]];portConstraint=eastwest;" vertex="1" parent="C990iu7r9GBEBKF5YpmI-56">
          <mxGeometry y="90" width="180" height="20" as="geometry" />
        </mxCell>
        <mxCell id="C990iu7r9GBEBKF5YpmI-64" value="" style="shape=partialRectangle;html=1;whiteSpace=wrap;connectable=0;fillColor=none;top=0;left=0;bottom=0;right=0;overflow=hidden;" vertex="1" parent="C990iu7r9GBEBKF5YpmI-63">
          <mxGeometry width="40" height="20" as="geometry" />
        </mxCell>
        <mxCell id="C990iu7r9GBEBKF5YpmI-65" value="" style="shape=partialRectangle;html=1;whiteSpace=wrap;connectable=0;fillColor=none;top=0;left=0;bottom=0;right=0;align=left;spacingLeft=6;overflow=hidden;" vertex="1" parent="C990iu7r9GBEBKF5YpmI-63">
          <mxGeometry x="40" width="140" height="20" as="geometry" />
        </mxCell>
        <mxCell id="C990iu7r9GBEBKF5YpmI-67" value="PARTS" style="shape=table;html=1;whiteSpace=wrap;startSize=30;container=1;collapsible=0;childLayout=tableLayout;fixedRows=1;rowLines=0;fontStyle=1;align=center;" vertex="1" parent="1">
          <mxGeometry x="530" y="900" width="180" height="110" as="geometry" />
        </mxCell>
        <mxCell id="C990iu7r9GBEBKF5YpmI-68" value="" style="shape=partialRectangle;html=1;whiteSpace=wrap;collapsible=0;dropTarget=0;pointerEvents=0;fillColor=none;top=0;left=0;bottom=1;right=0;points=[[0,0.5],[1,0.5]];portConstraint=eastwest;" vertex="1" parent="C990iu7r9GBEBKF5YpmI-67">
          <mxGeometry y="30" width="180" height="30" as="geometry" />
        </mxCell>
        <mxCell id="C990iu7r9GBEBKF5YpmI-69" value="&lt;b&gt;&lt;u&gt;PK&lt;/u&gt;&lt;/b&gt;" style="shape=partialRectangle;html=1;whiteSpace=wrap;connectable=0;fillColor=none;top=0;left=0;bottom=0;right=0;overflow=hidden;" vertex="1" parent="C990iu7r9GBEBKF5YpmI-68">
          <mxGeometry width="40" height="30" as="geometry" />
        </mxCell>
        <mxCell id="C990iu7r9GBEBKF5YpmI-70" value="&lt;b&gt;&lt;u&gt;Part No&lt;/u&gt;&lt;/b&gt;" style="shape=partialRectangle;html=1;whiteSpace=wrap;connectable=0;fillColor=none;top=0;left=0;bottom=0;right=0;align=left;spacingLeft=6;overflow=hidden;" vertex="1" parent="C990iu7r9GBEBKF5YpmI-68">
          <mxGeometry x="40" width="140" height="30" as="geometry" />
        </mxCell>
        <mxCell id="C990iu7r9GBEBKF5YpmI-71" value="" style="shape=partialRectangle;html=1;whiteSpace=wrap;collapsible=0;dropTarget=0;pointerEvents=0;fillColor=none;top=0;left=0;bottom=0;right=0;points=[[0,0.5],[1,0.5]];portConstraint=eastwest;" vertex="1" parent="C990iu7r9GBEBKF5YpmI-67">
          <mxGeometry y="60" width="180" height="30" as="geometry" />
        </mxCell>
        <mxCell id="C990iu7r9GBEBKF5YpmI-72" value="" style="shape=partialRectangle;html=1;whiteSpace=wrap;connectable=0;fillColor=none;top=0;left=0;bottom=0;right=0;overflow=hidden;" vertex="1" parent="C990iu7r9GBEBKF5YpmI-71">
          <mxGeometry width="40" height="30" as="geometry" />
        </mxCell>
        <mxCell id="C990iu7r9GBEBKF5YpmI-73" value="Description" style="shape=partialRectangle;html=1;whiteSpace=wrap;connectable=0;fillColor=none;top=0;left=0;bottom=0;right=0;align=left;spacingLeft=6;overflow=hidden;" vertex="1" parent="C990iu7r9GBEBKF5YpmI-71">
          <mxGeometry x="40" width="140" height="30" as="geometry" />
        </mxCell>
        <mxCell id="C990iu7r9GBEBKF5YpmI-74" value="" style="shape=partialRectangle;html=1;whiteSpace=wrap;collapsible=0;dropTarget=0;pointerEvents=0;fillColor=none;top=0;left=0;bottom=0;right=0;points=[[0,0.5],[1,0.5]];portConstraint=eastwest;" vertex="1" parent="C990iu7r9GBEBKF5YpmI-67">
          <mxGeometry y="90" width="180" height="20" as="geometry" />
        </mxCell>
        <mxCell id="C990iu7r9GBEBKF5YpmI-75" value="" style="shape=partialRectangle;html=1;whiteSpace=wrap;connectable=0;fillColor=none;top=0;left=0;bottom=0;right=0;overflow=hidden;" vertex="1" parent="C990iu7r9GBEBKF5YpmI-74">
          <mxGeometry width="40" height="20" as="geometry" />
        </mxCell>
        <mxCell id="C990iu7r9GBEBKF5YpmI-76" value="" style="shape=partialRectangle;html=1;whiteSpace=wrap;connectable=0;fillColor=none;top=0;left=0;bottom=0;right=0;align=left;spacingLeft=6;overflow=hidden;" vertex="1" parent="C990iu7r9GBEBKF5YpmI-74">
          <mxGeometry x="40" width="140" height="20" as="geometry" />
        </mxCell>
        <mxCell id="C990iu7r9GBEBKF5YpmI-77" value="" style="edgeStyle=entityRelationEdgeStyle;fontSize=12;html=1;endArrow=ERzeroToMany;startArrow=ERmandOne;entryX=0;entryY=0.067;entryDx=0;entryDy=0;entryPerimeter=0;" edge="1" parent="1" target="C990iu7r9GBEBKF5YpmI-80">
          <mxGeometry width="100" height="100" relative="1" as="geometry">
            <mxPoint x="690" y="810" as="sourcePoint" />
            <mxPoint x="770" y="900" as="targetPoint" />
          </mxGeometry>
        </mxCell>
        <mxCell id="C990iu7r9GBEBKF5YpmI-78" value="" style="edgeStyle=entityRelationEdgeStyle;fontSize=12;html=1;endArrow=ERzeroToMany;startArrow=ERmandOne;" edge="1" parent="1">
          <mxGeometry width="100" height="100" relative="1" as="geometry">
            <mxPoint x="710" y="970" as="sourcePoint" />
            <mxPoint x="800" y="940" as="targetPoint" />
          </mxGeometry>
        </mxCell>
        <mxCell id="C990iu7r9GBEBKF5YpmI-79" value="PARTS" style="shape=table;html=1;whiteSpace=wrap;startSize=30;container=1;collapsible=0;childLayout=tableLayout;fixedRows=1;rowLines=0;fontStyle=1;align=center;" vertex="1" parent="1">
          <mxGeometry x="800" y="870" width="180" height="130" as="geometry" />
        </mxCell>
        <mxCell id="C990iu7r9GBEBKF5YpmI-80" value="" style="shape=partialRectangle;html=1;whiteSpace=wrap;collapsible=0;dropTarget=0;pointerEvents=0;fillColor=none;top=0;left=0;bottom=1;right=0;points=[[0,0.5],[1,0.5]];portConstraint=eastwest;" vertex="1" parent="C990iu7r9GBEBKF5YpmI-79">
          <mxGeometry y="30" width="180" height="50" as="geometry" />
        </mxCell>
        <mxCell id="C990iu7r9GBEBKF5YpmI-81" value="&lt;b&gt;&lt;u&gt;PK, FK1&lt;br&gt;PK,FK2&lt;br&gt;&lt;/u&gt;&lt;/b&gt;" style="shape=partialRectangle;html=1;whiteSpace=wrap;connectable=0;fillColor=none;top=0;left=0;bottom=0;right=0;overflow=hidden;" vertex="1" parent="C990iu7r9GBEBKF5YpmI-80">
          <mxGeometry width="60" height="50" as="geometry" />
        </mxCell>
        <mxCell id="C990iu7r9GBEBKF5YpmI-82" value="&lt;b&gt;&lt;u&gt;Vendor Name&lt;br&gt;Part No&lt;br&gt;&lt;/u&gt;&lt;/b&gt;" style="shape=partialRectangle;html=1;whiteSpace=wrap;connectable=0;fillColor=none;top=0;left=0;bottom=0;right=0;align=left;spacingLeft=6;overflow=hidden;" vertex="1" parent="C990iu7r9GBEBKF5YpmI-80">
          <mxGeometry x="60" width="120" height="50" as="geometry" />
        </mxCell>
        <mxCell id="C990iu7r9GBEBKF5YpmI-83" value="" style="shape=partialRectangle;html=1;whiteSpace=wrap;collapsible=0;dropTarget=0;pointerEvents=0;fillColor=none;top=0;left=0;bottom=0;right=0;points=[[0,0.5],[1,0.5]];portConstraint=eastwest;" vertex="1" parent="C990iu7r9GBEBKF5YpmI-79">
          <mxGeometry y="80" width="180" height="30" as="geometry" />
        </mxCell>
        <mxCell id="C990iu7r9GBEBKF5YpmI-84" value="&#xa;&#xa;&#xa;&#xa;&#xa;&#xa;&#xa;&#xa;&#xa;&#xa;&#xa;&#xa;&#xa;&#xa;&#xa;&#xa;&#xa;&#xa;&#xa;&#xa;&lt;p class=&quot;MsoNormal&quot;&gt;WE DON’T HAVE PARTIAL FUNCTIONAL DEPEDENCIES OR TRANSITIVE&#xa;DEPENDENCIES, HENCE THE RELATION IS IN 3&lt;sup&gt; &lt;/sup&gt;NORMAL FORM&lt;/p&gt;&#xa;&#xa;&lt;p class=&quot;MsoNormal&quot;&gt;&amp;nbsp;&lt;/p&gt;&#xa;&#xa;&lt;p class=&quot;MsoNormal&quot;&gt;&lt;b&gt;CUSTOMER ID&lt;/b&gt; &lt;span style=&quot;font-family: &amp;quot;wingdings&amp;quot;&quot;&gt;&lt;span&gt;à&lt;/span&gt;&lt;/span&gt; Cust Name, Cust&#xa;Address&lt;/p&gt;&#xa;&#xa;&lt;p class=&quot;MsoNormal&quot;&gt;&lt;b&gt;ACCOUNT ID&lt;/b&gt; &lt;span style=&quot;font-family: &amp;quot;wingdings&amp;quot;&quot;&gt;&lt;span&gt;à&lt;/span&gt;&lt;/span&gt; Exp Date, Card Type,&#xa;Customer ID&lt;/p&gt;&#xa;&#xa;&lt;p class=&quot;MsoNormal&quot;&gt;&lt;b&gt;DAccount ID&lt;/b&gt; &lt;span style=&quot;font-family: &amp;quot;wingdings&amp;quot;&quot;&gt;&lt;span&gt;à&lt;/span&gt;&lt;/span&gt; Bank No&lt;/p&gt;&#xa;&#xa;&lt;p class=&quot;MsoNormal&quot;&gt;&lt;b&gt;CAccount ID&lt;/b&gt;&lt;span style=&quot;font-family: &amp;quot;wingdings&amp;quot;&quot;&gt;&lt;span&gt;à&lt;/span&gt;&lt;/span&gt; CurBalance&lt;/p&gt;&#xa;&#xa;&lt;p class=&quot;MsoNormal&quot;&gt;&lt;b&gt;Merchant ID &lt;/b&gt;&lt;b&gt;&lt;span style=&quot;font-family: &amp;quot;wingdings&amp;quot;&quot;&gt;&lt;span&gt;à&lt;/span&gt;&lt;/span&gt;&#xa;&lt;/b&gt;Merch Address&lt;b&gt;&lt;/b&gt;&lt;/p&gt;&#xa;&#xa;&lt;p class=&quot;MsoNormal&quot;&gt;&lt;b&gt;CAccountID, Merchant&#xa;ID&lt;/b&gt; &lt;span style=&quot;font-family: &amp;quot;wingdings&amp;quot;&quot;&gt;&lt;span&gt;à&lt;/span&gt;&lt;/span&gt;&#xa;Charge Date, Charge Time, Amount&lt;/p&gt;&#xa;&#xa;&lt;p class=&quot;MsoNormal&quot;&gt;&amp;nbsp;&lt;/p&gt;&#xa;&#xa;&lt;p class=&quot;MsoNormal&quot;&gt;IF WE FILL IN THE TABLE, WE HAVE relations with unique rows&#xa;and no multivalued attributes&lt;/p&gt;&#xa;&#xa;&lt;table class=&quot;MsoNormalTable&quot; border=&quot;0&quot; cellspacing=&quot;0&quot; cellpadding=&quot;0&quot; style=&quot;border-collapse: collapse&quot;&gt;&#xa; &lt;tbody&gt;&lt;tr style=&quot;height: 24.25pt&quot;&gt;&#xa;  &lt;td valign=&quot;top&quot; style=&quot;border-top: solid black 1.0pt ; border-left: none ; border-bottom: solid black 1.0pt ; border-right: none ; padding: 5.0pt 5.0pt 5.0pt 5.0pt ; height: 24.25pt&quot;&gt;&#xa;  &lt;p class=&quot;MsoNormal&quot; style=&quot;margin-top: 12.0pt ; margin-right: 0cm ; margin-bottom: 12.0pt ; margin-left: 0cm ; text-align: justify ; line-height: normal&quot;&gt;&lt;u&gt;&lt;span style=&quot;font-size: 12.0pt ; font-family: &amp;quot;times new roman&amp;quot; , serif ; color: black&quot;&gt;Part No&lt;/span&gt;&lt;/u&gt;&lt;span style=&quot;font-size: 12.0pt ; font-family: &amp;quot;times new roman&amp;quot; , serif&quot;&gt;&lt;/span&gt;&lt;/p&gt;&#xa;  &lt;/td&gt;&#xa;  &lt;td valign=&quot;top&quot; style=&quot;border-top: solid black 1.0pt ; border-left: none ; border-bottom: solid black 1.0pt ; border-right: none ; padding: 5.0pt 5.0pt 5.0pt 5.0pt ; height: 24.25pt&quot;&gt;&#xa;  &lt;p class=&quot;MsoNormal&quot; style=&quot;margin-top: 12.0pt ; margin-right: 0cm ; margin-bottom: 12.0pt ; margin-left: 0cm ; text-align: justify ; line-height: normal&quot;&gt;&lt;span style=&quot;font-size: 12.0pt ; font-family: &amp;quot;times new roman&amp;quot; , serif ; color: black&quot;&gt;Description&lt;/span&gt;&lt;span style=&quot;font-size: 12.0pt ; font-family: &amp;quot;times new roman&amp;quot; , serif&quot;&gt;&lt;/span&gt;&lt;/p&gt;&#xa;  &lt;/td&gt;&#xa;  &lt;td valign=&quot;top&quot; style=&quot;border-top: solid black 1.0pt ; border-left: none ; border-bottom: solid black 1.0pt ; border-right: none ; padding: 5.0pt 5.0pt 5.0pt 5.0pt ; height: 24.25pt&quot;&gt;&#xa;  &lt;p class=&quot;MsoNormal&quot; style=&quot;margin-top: 12.0pt ; margin-right: 0cm ; margin-bottom: 12.0pt ; margin-left: 0cm ; text-align: justify ; line-height: normal&quot;&gt;&lt;u&gt;&lt;span style=&quot;font-size: 12.0pt ; font-family: &amp;quot;times new roman&amp;quot; , serif ; color: black&quot;&gt;Vendor Name&lt;/span&gt;&lt;/u&gt;&lt;span style=&quot;font-size: 12.0pt ; font-family: &amp;quot;times new roman&amp;quot; , serif&quot;&gt;&lt;/span&gt;&lt;/p&gt;&#xa;  &lt;/td&gt;&#xa;  &lt;td valign=&quot;top&quot; style=&quot;border-top: solid black 1.0pt ; border-left: none ; border-bottom: solid black 1.0pt ; border-right: none ; padding: 5.0pt 5.0pt 5.0pt 5.0pt ; height: 24.25pt&quot;&gt;&#xa;  &lt;p class=&quot;MsoNormal&quot; style=&quot;margin-top: 12.0pt ; margin-right: 0cm ; margin-bottom: 12.0pt ; margin-left: 0cm ; text-align: justify ; line-height: normal&quot;&gt;&lt;span style=&quot;font-size: 12.0pt ; font-family: &amp;quot;times new roman&amp;quot; , serif ; color: black&quot;&gt;Address&lt;/span&gt;&lt;span style=&quot;font-size: 12.0pt ; font-family: &amp;quot;times new roman&amp;quot; , serif&quot;&gt;&lt;/span&gt;&lt;/p&gt;&#xa;  &lt;/td&gt;&#xa;  &lt;td valign=&quot;top&quot; style=&quot;border-top: solid black 1.0pt ; border-left: none ; border-bottom: solid black 1.0pt ; border-right: none ; padding: 5.0pt 5.0pt 5.0pt 5.0pt ; height: 24.25pt&quot;&gt;&#xa;  &lt;p class=&quot;MsoNormal&quot; style=&quot;margin-top: 12.0pt ; margin-right: 0cm ; margin-bottom: 12.0pt ; margin-left: 0cm ; text-align: justify ; line-height: normal&quot;&gt;&lt;span style=&quot;font-size: 12.0pt ; font-family: &amp;quot;times new roman&amp;quot; , serif ; color: black&quot;&gt;Unit Cost&lt;/span&gt;&lt;span style=&quot;font-size: 12.0pt ; font-family: &amp;quot;times new roman&amp;quot; , serif&quot;&gt;&lt;/span&gt;&lt;/p&gt;&#xa;  &lt;/td&gt;&#xa; &lt;/tr&gt;&#xa; &lt;tr style=&quot;height: 24.25pt&quot;&gt;&#xa;  &lt;td valign=&quot;top&quot; style=&quot;border: none ; padding: 5.0pt 5.0pt 5.0pt 5.0pt ; height: 24.25pt&quot;&gt;&#xa;  &lt;p class=&quot;MsoNormal&quot; style=&quot;margin-top: 12.0pt ; margin-right: 0cm ; margin-bottom: 12.0pt ; margin-left: 0cm ; text-align: justify ; line-height: normal&quot;&gt;&lt;span style=&quot;font-size: 12.0pt ; font-family: &amp;quot;times new roman&amp;quot; , serif ; color: black&quot;&gt;1234&lt;/span&gt;&lt;span style=&quot;font-size: 12.0pt ; font-family: &amp;quot;times new roman&amp;quot; , serif&quot;&gt;&lt;/span&gt;&lt;/p&gt;&#xa;  &lt;/td&gt;&#xa;  &lt;td valign=&quot;top&quot; style=&quot;border: none ; padding: 5.0pt 5.0pt 5.0pt 5.0pt ; height: 24.25pt&quot;&gt;&#xa;  &lt;p class=&quot;MsoNormal&quot; style=&quot;margin-top: 12.0pt ; margin-right: 0cm ; margin-bottom: 12.0pt ; margin-left: 0cm ; text-align: justify ; line-height: normal&quot;&gt;&lt;span style=&quot;font-size: 12.0pt ; font-family: &amp;quot;times new roman&amp;quot; , serif ; color: black&quot;&gt;Logic chip&lt;/span&gt;&lt;span style=&quot;font-size: 12.0pt ; font-family: &amp;quot;times new roman&amp;quot; , serif&quot;&gt;&lt;/span&gt;&lt;/p&gt;&#xa;  &lt;/td&gt;&#xa;  &lt;td valign=&quot;top&quot; style=&quot;border: none ; padding: 5.0pt 5.0pt 5.0pt 5.0pt ; height: 24.25pt&quot;&gt;&#xa;  &lt;p class=&quot;MsoNormal&quot; style=&quot;margin-top: 12.0pt ; margin-right: 0cm ; margin-bottom: 12.0pt ; margin-left: 0cm ; text-align: justify ; line-height: normal&quot;&gt;&lt;span style=&quot;font-size: 12.0pt ; font-family: &amp;quot;times new roman&amp;quot; , serif ; color: black&quot;&gt;Fast Chips&lt;/span&gt;&lt;span style=&quot;font-size: 12.0pt ; font-family: &amp;quot;times new roman&amp;quot; , serif&quot;&gt;&lt;/span&gt;&lt;/p&gt;&#xa;  &lt;/td&gt;&#xa;  &lt;td valign=&quot;top&quot; style=&quot;border: none ; padding: 5.0pt 5.0pt 5.0pt 5.0pt ; height: 24.25pt&quot;&gt;&#xa;  &lt;p class=&quot;MsoNormal&quot; style=&quot;margin-top: 12.0pt ; margin-right: 0cm ; margin-bottom: 12.0pt ; margin-left: 0cm ; text-align: justify ; line-height: normal&quot;&gt;&lt;span style=&quot;font-size: 12.0pt ; font-family: &amp;quot;times new roman&amp;quot; , serif ; color: black&quot;&gt;Cupertino&lt;/span&gt;&lt;span style=&quot;font-size: 12.0pt ; font-family: &amp;quot;times new roman&amp;quot; , serif&quot;&gt;&lt;/span&gt;&lt;/p&gt;&#xa;  &lt;/td&gt;&#xa;  &lt;td valign=&quot;top&quot; style=&quot;border: none ; padding: 5.0pt 5.0pt 5.0pt 5.0pt ; height: 24.25pt&quot;&gt;&#xa;  &lt;p class=&quot;MsoNormal&quot; style=&quot;margin-top: 12.0pt ; margin-right: 0cm ; margin-bottom: 12.0pt ; margin-left: 0cm ; text-align: justify ; line-height: normal&quot;&gt;&lt;span style=&quot;font-size: 12.0pt ; font-family: &amp;quot;times new roman&amp;quot; , serif ; color: black&quot;&gt;10.00&lt;/span&gt;&lt;span style=&quot;font-size: 12.0pt ; font-family: &amp;quot;times new roman&amp;quot; , serif&quot;&gt;&lt;/span&gt;&lt;/p&gt;&#xa;  &lt;/td&gt;&#xa; &lt;/tr&gt;&#xa; &lt;tr style=&quot;height: 23.5pt&quot;&gt;&#xa;  &lt;td valign=&quot;top&quot; style=&quot;padding: 5.0pt 5.0pt 5.0pt 5.0pt ; height: 23.5pt&quot;&gt;&#xa;  &lt;p class=&quot;MsoNormal&quot; style=&quot;margin-top: 12.0pt ; margin-right: 0cm ; margin-bottom: 12.0pt ; margin-left: 0cm ; text-align: justify ; line-height: normal&quot;&gt;&lt;span style=&quot;font-size: 12.0pt ; font-family: &amp;quot;times new roman&amp;quot; , serif ; color: black&quot;&gt;1234&lt;/span&gt;&lt;span style=&quot;font-size: 12.0pt ; font-family: &amp;quot;times new roman&amp;quot; , serif&quot;&gt;&lt;/span&gt;&lt;/p&gt;&#xa;  &lt;/td&gt;&#xa;  &lt;td valign=&quot;top&quot; style=&quot;padding: 5.0pt 5.0pt 5.0pt 5.0pt ; height: 23.5pt&quot;&gt;&#xa;  &lt;p class=&quot;MsoNormal&quot; style=&quot;margin-top: 12.0pt ; margin-right: 0cm ; margin-bottom: 12.0pt ; margin-left: 0cm ; text-align: justify ; line-height: normal&quot;&gt;&lt;span style=&quot;font-size: 12.0pt ; font-family: &amp;quot;times new roman&amp;quot; , serif ; color: black&quot;&gt;Logic chip&lt;/span&gt;&lt;span style=&quot;font-size: 12.0pt ; font-family: &amp;quot;times new roman&amp;quot; , serif&quot;&gt;&lt;/span&gt;&lt;/p&gt;&#xa;  &lt;/td&gt;&#xa;  &lt;td valign=&quot;top&quot; style=&quot;padding: 5.0pt 5.0pt 5.0pt 5.0pt ; height: 23.5pt&quot;&gt;&#xa;  &lt;p class=&quot;MsoNormal&quot; style=&quot;margin-top: 12.0pt ; margin-right: 0cm ; margin-bottom: 12.0pt ; margin-left: 0cm ; text-align: justify ; line-height: normal&quot;&gt;&lt;span style=&quot;font-size: 12.0pt ; font-family: &amp;quot;times new roman&amp;quot; , serif ; color: black&quot;&gt;Smart Chips&lt;/span&gt;&lt;span style=&quot;font-size: 12.0pt ; font-family: &amp;quot;times new roman&amp;quot; , serif&quot;&gt;&lt;/span&gt;&lt;/p&gt;&#xa;  &lt;/td&gt;&#xa;  &lt;td valign=&quot;top&quot; style=&quot;padding: 5.0pt 5.0pt 5.0pt 5.0pt ; height: 23.5pt&quot;&gt;&#xa;  &lt;p class=&quot;MsoNormal&quot; style=&quot;margin-top: 12.0pt ; margin-right: 0cm ; margin-bottom: 12.0pt ; margin-left: 0cm ; text-align: justify ; line-height: normal&quot;&gt;&lt;span style=&quot;font-size: 12.0pt ; font-family: &amp;quot;times new roman&amp;quot; , serif ; color: black&quot;&gt;Phoenix&lt;/span&gt;&lt;span style=&quot;font-size: 12.0pt ; font-family: &amp;quot;times new roman&amp;quot; , serif&quot;&gt;&lt;/span&gt;&lt;/p&gt;&#xa;  &lt;/td&gt;&#xa;  &lt;td valign=&quot;top&quot; style=&quot;padding: 5.0pt 5.0pt 5.0pt 5.0pt ; height: 23.5pt&quot;&gt;&#xa;  &lt;p class=&quot;MsoNormal&quot; style=&quot;margin-top: 12.0pt ; margin-right: 0cm ; margin-bottom: 12.0pt ; margin-left: 0cm ; text-align: justify ; line-height: normal&quot;&gt;&lt;span style=&quot;font-size: 12.0pt ; font-family: &amp;quot;times new roman&amp;quot; , serif ; color: black&quot;&gt;8.00&lt;/span&gt;&lt;span style=&quot;font-size: 12.0pt ; font-family: &amp;quot;times new roman&amp;quot; , serif&quot;&gt;&lt;/span&gt;&lt;/p&gt;&#xa;  &lt;/td&gt;&#xa; &lt;/tr&gt;&#xa; &lt;tr style=&quot;height: 23.5pt&quot;&gt;&#xa;  &lt;td valign=&quot;top&quot; style=&quot;padding: 5.0pt 5.0pt 5.0pt 5.0pt ; height: 23.5pt&quot;&gt;&#xa;  &lt;p class=&quot;MsoNormal&quot; style=&quot;margin-top: 12.0pt ; margin-right: 0cm ; margin-bottom: 12.0pt ; margin-left: 0cm ; text-align: justify ; line-height: normal&quot;&gt;&lt;span style=&quot;font-size: 12.0pt ; font-family: &amp;quot;times new roman&amp;quot; , serif ; color: black&quot;&gt;5678&lt;/span&gt;&lt;span style=&quot;font-size: 12.0pt ; font-family: &amp;quot;times new roman&amp;quot; , serif&quot;&gt;&lt;/span&gt;&lt;/p&gt;&#xa;  &lt;/td&gt;&#xa;  &lt;td valign=&quot;top&quot; style=&quot;padding: 5.0pt 5.0pt 5.0pt 5.0pt ; height: 23.5pt&quot;&gt;&#xa;  &lt;p class=&quot;MsoNormal&quot; style=&quot;margin-top: 12.0pt ; margin-right: 0cm ; margin-bottom: 12.0pt ; margin-left: 0cm ; text-align: justify ; line-height: normal&quot;&gt;&lt;span style=&quot;font-size: 12.0pt ; font-family: &amp;quot;times new roman&amp;quot; , serif ; color: black&quot;&gt;Memory chip&lt;/span&gt;&lt;span style=&quot;font-size: 12.0pt ; font-family: &amp;quot;times new roman&amp;quot; , serif&quot;&gt;&lt;/span&gt;&lt;/p&gt;&#xa;  &lt;/td&gt;&#xa;  &lt;td valign=&quot;top&quot; style=&quot;padding: 5.0pt 5.0pt 5.0pt 5.0pt ; height: 23.5pt&quot;&gt;&#xa;  &lt;p class=&quot;MsoNormal&quot; style=&quot;margin-top: 12.0pt ; margin-right: 0cm ; margin-bottom: 12.0pt ; margin-left: 0cm ; text-align: justify ; line-height: normal&quot;&gt;&lt;span style=&quot;font-size: 12.0pt ; font-family: &amp;quot;times new roman&amp;quot; , serif ; color: black&quot;&gt;Fast Chips&lt;/span&gt;&lt;span style=&quot;font-size: 12.0pt ; font-family: &amp;quot;times new roman&amp;quot; , serif&quot;&gt;&lt;/span&gt;&lt;/p&gt;&#xa;  &lt;/td&gt;&#xa;  &lt;td valign=&quot;top&quot; style=&quot;padding: 5.0pt 5.0pt 5.0pt 5.0pt ; height: 23.5pt&quot;&gt;&#xa;  &lt;p class=&quot;MsoNormal&quot; style=&quot;margin-top: 12.0pt ; margin-right: 0cm ; margin-bottom: 12.0pt ; margin-left: 0cm ; text-align: justify ; line-height: normal&quot;&gt;&lt;span style=&quot;font-size: 12.0pt ; font-family: &amp;quot;times new roman&amp;quot; , serif ; color: black&quot;&gt;Cupertino&lt;/span&gt;&lt;span style=&quot;font-size: 12.0pt ; font-family: &amp;quot;times new roman&amp;quot; , serif&quot;&gt;&lt;/span&gt;&lt;/p&gt;&#xa;  &lt;/td&gt;&#xa;  &lt;td valign=&quot;top&quot; style=&quot;padding: 5.0pt 5.0pt 5.0pt 5.0pt ; height: 23.5pt&quot;&gt;&#xa;  &lt;p class=&quot;MsoNormal&quot; style=&quot;margin-top: 12.0pt ; margin-right: 0cm ; margin-bottom: 12.0pt ; margin-left: 0cm ; text-align: justify ; line-height: normal&quot;&gt;&lt;span style=&quot;font-size: 12.0pt ; font-family: &amp;quot;times new roman&amp;quot; , serif ; color: black&quot;&gt;3.00&lt;/span&gt;&lt;span style=&quot;font-size: 12.0pt ; font-family: &amp;quot;times new roman&amp;quot; , serif&quot;&gt;&lt;/span&gt;&lt;/p&gt;&#xa;  &lt;/td&gt;&#xa; &lt;/tr&gt;&#xa; &lt;tr style=&quot;height: 23.5pt&quot;&gt;&#xa;  &lt;td valign=&quot;top&quot; style=&quot;padding: 5.0pt 5.0pt 5.0pt 5.0pt ; height: 23.5pt&quot;&gt;&#xa;  &lt;p class=&quot;MsoNormal&quot; style=&quot;margin-top: 12.0pt ; margin-right: 0cm ; margin-bottom: 12.0pt ; margin-left: 0cm ; text-align: justify ; line-height: normal&quot;&gt;&lt;span style=&quot;font-size: 12.0pt ; font-family: &amp;quot;times new roman&amp;quot; , serif ; color: black&quot;&gt;5678&lt;/span&gt;&lt;span style=&quot;font-size: 12.0pt ; font-family: &amp;quot;times new roman&amp;quot; , serif&quot;&gt;&lt;/span&gt;&lt;/p&gt;&#xa;  &lt;/td&gt;&#xa;  &lt;td valign=&quot;top&quot; style=&quot;padding: 5.0pt 5.0pt 5.0pt 5.0pt ; height: 23.5pt&quot;&gt;&#xa;  &lt;p class=&quot;MsoNormal&quot; style=&quot;margin-top: 12.0pt ; margin-right: 0cm ; margin-bottom: 12.0pt ; margin-left: 0cm ; text-align: justify ; line-height: normal&quot;&gt;&lt;span style=&quot;font-size: 12.0pt ; font-family: &amp;quot;times new roman&amp;quot; , serif ; color: black&quot;&gt;Memory chip&lt;/span&gt;&lt;span style=&quot;font-size: 12.0pt ; font-family: &amp;quot;times new roman&amp;quot; , serif&quot;&gt;&lt;/span&gt;&lt;/p&gt;&#xa;  &lt;/td&gt;&#xa;  &lt;td valign=&quot;top&quot; style=&quot;padding: 5.0pt 5.0pt 5.0pt 5.0pt ; height: 23.5pt&quot;&gt;&#xa;  &lt;p class=&quot;MsoNormal&quot; style=&quot;margin-top: 12.0pt ; margin-right: 0cm ; margin-bottom: 12.0pt ; margin-left: 0cm ; text-align: justify ; line-height: normal&quot;&gt;&lt;span style=&quot;font-size: 12.0pt ; font-family: &amp;quot;times new roman&amp;quot; , serif ; color: black&quot;&gt;Quality Chips&lt;/span&gt;&lt;span style=&quot;font-size: 12.0pt ; font-family: &amp;quot;times new roman&amp;quot; , serif&quot;&gt;&lt;/span&gt;&lt;/p&gt;&#xa;  &lt;/td&gt;&#xa;  &lt;td valign=&quot;top&quot; style=&quot;padding: 5.0pt 5.0pt 5.0pt 5.0pt ; height: 23.5pt&quot;&gt;&#xa;  &lt;p class=&quot;MsoNormal&quot; style=&quot;margin-top: 12.0pt ; margin-right: 0cm ; margin-bottom: 12.0pt ; margin-left: 0cm ; text-align: justify ; line-height: normal&quot;&gt;&lt;span style=&quot;font-size: 12.0pt ; font-family: &amp;quot;times new roman&amp;quot; , serif ; color: black&quot;&gt;Austin&lt;/span&gt;&lt;span style=&quot;font-size: 12.0pt ; font-family: &amp;quot;times new roman&amp;quot; , serif&quot;&gt;&lt;/span&gt;&lt;/p&gt;&#xa;  &lt;/td&gt;&#xa;  &lt;td valign=&quot;top&quot; style=&quot;padding: 5.0pt 5.0pt 5.0pt 5.0pt ; height: 23.5pt&quot;&gt;&#xa;  &lt;p class=&quot;MsoNormal&quot; style=&quot;margin-top: 12.0pt ; margin-right: 0cm ; margin-bottom: 12.0pt ; margin-left: 0cm ; text-align: justify ; line-height: normal&quot;&gt;&lt;span style=&quot;font-size: 12.0pt ; font-family: &amp;quot;times new roman&amp;quot; , serif ; color: black&quot;&gt;2.00&lt;/span&gt;&lt;span style=&quot;font-size: 12.0pt ; font-family: &amp;quot;times new roman&amp;quot; , serif&quot;&gt;&lt;/span&gt;&lt;/p&gt;&#xa;  &lt;/td&gt;&#xa; &lt;/tr&gt;&#xa; &lt;tr style=&quot;height: 23.5pt&quot;&gt;&#xa;  &lt;td valign=&quot;top&quot; style=&quot;border: none ; border-bottom: solid black 1.0pt ; padding: 5.0pt 5.0pt 5.0pt 5.0pt ; height: 23.5pt&quot;&gt;&#xa;  &lt;p class=&quot;MsoNormal&quot; style=&quot;margin-top: 12.0pt ; margin-right: 0cm ; margin-bottom: 12.0pt ; margin-left: 0cm ; text-align: justify ; line-height: normal&quot;&gt;&lt;span style=&quot;font-size: 12.0pt ; font-family: &amp;quot;times new roman&amp;quot; , serif ; color: black&quot;&gt;5678&lt;/span&gt;&lt;span style=&quot;font-size: 12.0pt ; font-family: &amp;quot;times new roman&amp;quot; , serif&quot;&gt;&lt;/span&gt;&lt;/p&gt;&#xa;  &lt;/td&gt;&#xa;  &lt;td valign=&quot;top&quot; style=&quot;border: none ; border-bottom: solid black 1.0pt ; padding: 5.0pt 5.0pt 5.0pt 5.0pt ; height: 23.5pt&quot;&gt;&#xa;  &lt;p class=&quot;MsoNormal&quot; style=&quot;margin-top: 12.0pt ; margin-right: 0cm ; margin-bottom: 12.0pt ; margin-left: 0cm ; text-align: justify ; line-height: normal&quot;&gt;&lt;span style=&quot;font-size: 12.0pt ; font-family: &amp;quot;times new roman&amp;quot; , serif ; color: black&quot;&gt;Memory chip&lt;/span&gt;&lt;span style=&quot;font-size: 12.0pt ; font-family: &amp;quot;times new roman&amp;quot; , serif&quot;&gt;&lt;/span&gt;&lt;/p&gt;&#xa;  &lt;/td&gt;&#xa;  &lt;td valign=&quot;top&quot; style=&quot;border: none ; border-bottom: solid black 1.0pt ; padding: 5.0pt 5.0pt 5.0pt 5.0pt ; height: 23.5pt&quot;&gt;&#xa;  &lt;p class=&quot;MsoNormal&quot; style=&quot;margin-top: 12.0pt ; margin-right: 0cm ; margin-bottom: 12.0pt ; margin-left: 0cm ; text-align: justify ; line-height: normal&quot;&gt;&lt;span style=&quot;font-size: 12.0pt ; font-family: &amp;quot;times new roman&amp;quot; , serif ; color: black&quot;&gt;Smart Chips&lt;/span&gt;&lt;span style=&quot;font-size: 12.0pt ; font-family: &amp;quot;times new roman&amp;quot; , serif&quot;&gt;&lt;/span&gt;&lt;/p&gt;&#xa;  &lt;/td&gt;&#xa;  &lt;td valign=&quot;top&quot; style=&quot;border: none ; border-bottom: solid black 1.0pt ; padding: 5.0pt 5.0pt 5.0pt 5.0pt ; height: 23.5pt&quot;&gt;&#xa;  &lt;p class=&quot;MsoNormal&quot; style=&quot;margin-top: 12.0pt ; margin-right: 0cm ; margin-bottom: 12.0pt ; margin-left: 0cm ; text-align: justify ; line-height: normal&quot;&gt;&lt;span style=&quot;font-size: 12.0pt ; font-family: &amp;quot;times new roman&amp;quot; , serif ; color: black&quot;&gt;Phoenix&lt;/span&gt;&lt;span style=&quot;font-size: 12.0pt ; font-family: &amp;quot;times new roman&amp;quot; , serif&quot;&gt;&lt;/span&gt;&lt;/p&gt;&#xa;  &lt;/td&gt;&#xa;  &lt;td valign=&quot;top&quot; style=&quot;border: none ; border-bottom: solid black 1.0pt ; padding: 5.0pt 5.0pt 5.0pt 5.0pt ; height: 23.5pt&quot;&gt;&#xa;  &lt;p class=&quot;MsoNormal&quot; style=&quot;margin-top: 12.0pt ; margin-right: 0cm ; margin-bottom: 12.0pt ; margin-left: 0cm ; text-align: justify ; line-height: normal&quot;&gt;&lt;span style=&quot;font-size: 12.0pt ; font-family: &amp;quot;times new roman&amp;quot; , serif ; color: black&quot;&gt;5.00&lt;/span&gt;&lt;span style=&quot;font-size: 12.0pt ; font-family: &amp;quot;times new roman&amp;quot; , serif&quot;&gt;&lt;/span&gt;&lt;/p&gt;&#xa;  &lt;/td&gt;&#xa; &lt;/tr&gt;&#xa;&lt;/tbody&gt;&lt;/table&gt;&#xa;&#xa;&lt;p class=&quot;MsoNormal&quot;&gt;THE FUNCTIONAL DEPENDENCIES&lt;/p&gt;&#xa;&#xa;&lt;p class=&quot;MsoNormal&quot;&gt;Part No &lt;span style=&quot;font-family: &amp;quot;wingdings&amp;quot;&quot;&gt;&lt;span&gt;à&lt;/span&gt;&lt;/span&gt;&#xa;Description&lt;/p&gt;&#xa;&#xa;&lt;p class=&quot;MsoNormal&quot;&gt;Vendor Name&lt;span&gt;&amp;nbsp;&amp;nbsp; &lt;/span&gt;&lt;span style=&quot;font-family: &amp;quot;wingdings&amp;quot;&quot;&gt;&lt;span&gt;à&lt;/span&gt;&lt;/span&gt; Address&lt;/p&gt;&#xa;&#xa;&lt;p class=&quot;MsoNormal&quot;&gt;Part No, Vendor Name &lt;span style=&quot;font-family: &amp;quot;wingdings&amp;quot;&quot;&gt;&lt;span&gt;à&lt;/span&gt;&lt;/span&gt;&#xa;Unit Cost&lt;/p&gt;&#xa;&#xa;&lt;p class=&quot;MsoNormal&quot;&gt;&amp;nbsp;&lt;/p&gt;&#xa;&#xa;&lt;p class=&quot;MsoNormal&quot;&gt;INSERTION ANOMALIES. WE CANNOT INSERT INFORMATION ON A NEW&#xa;VENDOR WITHOUT HAVING A PART NUMBER, OTHERWISE PART NO WOULD BE NULL. AND A NEW&#xa;PART NUMBER CANNOT BE INSERTED WITHOUT KNOWING A VENDOR, OTHERWISE THE VENDOR&#xa;NAME WOULD BE NULL.&lt;/p&gt;&#xa;&#xa;&lt;p class=&quot;MsoNormal&quot;&gt;DELETION ANOMALIES— IF WE REMOVE PART NO 5678, WE LOSE&#xa;INFORMATION ABOUT THE EXISTENCE OF A VENDER NAME, QUALITY CHIPS.&lt;/p&gt;&#xa;&#xa;&lt;p class=&quot;MsoNormal&quot;&gt;MODIFICATION ANOMALIES.&lt;/p&gt;&#xa;&#xa;&lt;p class=&quot;MsoNormal&quot;&gt;IF WE ARE GOING TO CHANGE THE ADDRESS OF THE VENDOR, LIKE&#xa;FAST CHIPS, WE NEED TO UPDATE MULTIPLE RECORDS.&lt;/p&gt;&#xa;&#xa;&#xa;&#xa;&#xa;&#xa;" style="shape=partialRectangle;html=1;whiteSpace=wrap;connectable=0;fillColor=none;top=0;left=0;bottom=0;right=0;overflow=hidden;" vertex="1" parent="C990iu7r9GBEBKF5YpmI-83">
          <mxGeometry width="60" height="30" as="geometry" />
        </mxCell>
        <mxCell id="C990iu7r9GBEBKF5YpmI-85" value="Unit cost" style="shape=partialRectangle;html=1;whiteSpace=wrap;connectable=0;fillColor=none;top=0;left=0;bottom=0;right=0;align=left;spacingLeft=6;overflow=hidden;" vertex="1" parent="C990iu7r9GBEBKF5YpmI-83">
          <mxGeometry x="60" width="120" height="30" as="geometry" />
        </mxCell>
        <mxCell id="C990iu7r9GBEBKF5YpmI-86" value="" style="shape=partialRectangle;html=1;whiteSpace=wrap;collapsible=0;dropTarget=0;pointerEvents=0;fillColor=none;top=0;left=0;bottom=0;right=0;points=[[0,0.5],[1,0.5]];portConstraint=eastwest;" vertex="1" parent="C990iu7r9GBEBKF5YpmI-79">
          <mxGeometry y="110" width="180" height="20" as="geometry" />
        </mxCell>
        <mxCell id="C990iu7r9GBEBKF5YpmI-87" value="" style="shape=partialRectangle;html=1;whiteSpace=wrap;connectable=0;fillColor=none;top=0;left=0;bottom=0;right=0;overflow=hidden;" vertex="1" parent="C990iu7r9GBEBKF5YpmI-86">
          <mxGeometry width="60" height="20" as="geometry" />
        </mxCell>
        <mxCell id="C990iu7r9GBEBKF5YpmI-88" value="" style="shape=partialRectangle;html=1;whiteSpace=wrap;connectable=0;fillColor=none;top=0;left=0;bottom=0;right=0;align=left;spacingLeft=6;overflow=hidden;" vertex="1" parent="C990iu7r9GBEBKF5YpmI-86">
          <mxGeometry x="60" width="120" height="20" as="geometry" />
        </mxCell>
      </root>
    </mxGraphModel>
  </diagram>
</mxfile>
